# xmcd CD database file
# Copyright (C) 1995 Ti Kan
#
# Track frame offsets:
#	150
#	12905
#	31507
#	46612
#	58485
#	80212
#	97150
#	112255
#	126607
#	141192
#
# Disc length: 2147 seconds
#
# Revision: 1
# Processed by: cddbd v1.4b41PL1 Copyright (c) Steve Scherf et al.
# Submitted via: xmcd 1.4
#
DISCID=9108610a
DTITLE=Robert Cray - Too Many Cooks
DYEAR=1900
DGENRE=
TTITLE0=Too Many Cooks
TTITLE1=The Score
TTITLE2=When The Welfare Turns Its Back On You
TTITLE3=That's What I'll Do
TTITLE4=I'd Rather Be A Wino
TTITLE5=Who's Been Talking
TTITLE6=Sleeping In The Ground
TTITLE7=I'm Gonna Forget About You
TTITLE8=Nice As A Fool Can Be
TTITLE9=If You're Thinkin' What I'm Thinkin'
EXTD=
EXTT0=
EXTT1=
EXTT2=
EXTT3=
EXTT4=
EXTT5=
EXTT6=
EXTT7=
EXTT8=
EXTT9=
PLAYORDER=
